<?xml version="1.0" encoding="UTF-8"?>
<svg width="24px" height="24px" viewBox="0 0 24 24" version="1.1" xmlns="http://www.w3.org/2000/svg">
    <g stroke="none" stroke-width="1" fill="none" fill-rule="evenodd">
        <path d="M3,3 L21,3 C22.1045695,3 23,3.8954305 23,5 L23,19 C23,20.1045695 22.1045695,21 21,21 L3,21 C1.8954305,21 1,20.1045695 1,19 L1,5 C1,3.8954305 1.8954305,3 3,3 Z M3,4 C2.44771525,4 2,4.44771525 2,5 L2,19 C2,19.5522847 2.44771525,20 3,20 L21,20 C21.5522847,20 22,19.5522847 22,19 L22,5 C22,4.44771525 21.5522847,4 21,4 L3,4 Z M4,7 L20,7 L20,8 L4,8 L4,7 Z M4,5 L6,5 L6,6 L4,6 L4,5 Z M7,5 L9,5 L9,6 L7,6 L7,5 Z M10,5 L12,5 L12,6 L10,6 L10,5 Z" fill="#1C64F2" fill-rule="nonzero"></path>
    </g>
</svg> 